<svg width="294" height="294" viewBox="0 0 294 294" fill="none" xmlns="http://www.w3.org/2000/svg">
<g clip-path="url(#clip0_1716_5898)">
<path d="M147 294C228.186 294 294 228.186 294 147C294 65.8141 228.186 0 147 0C65.8141 0 0 65.8141 0 147C0 228.186 65.8141 294 147 294Z" fill="url(#paint0_radial_1716_5898)"/>
<path opacity="0.5" d="M250.9 43.1001C205 -2.89987 136.1 -12.0999 81 15.6001L197 285.3C216.7 278.2 235.2 266.8 251 251C308.4 193.5 308.4 100.5 250.9 43.1001Z" fill="#F0F5FF"/>
<g opacity="0.5">
<path d="M176.2 55.6C182.4 55.6 187.5 50.5 187.5 44.3C187.5 38.1 182.4 33 176.2 33C170 33 164.9 38.1 164.9 44.3C164.9 50.5 169.9 55.6 176.2 55.6Z" fill="#0A0A0A"/>
<path d="M209.4 53.6C206.4 53.4 203.3 53.6 200.3 54C189.6 55.6 181.5 60.6 176.1 65.1C170.7 60.5 162.6 55.5 151.9 54C148.9 53.5 145.8 53.4 142.8 53.6C139 53.8 136.1 57 136.1 60.8V93.3C136.1 95.3 136.9 97.1 138.3 98.4C139.7 99.8 141.7 100.5 143.7 100.4C146.1 100.3 148.6 100.4 151 100.8C157.5 101.7 163.7 104.3 169.4 108.4C171.4 109.8 173.7 110.6 176.1 110.6C178.4 110.6 180.8 109.9 182.8 108.4C188.5 104.3 194.6 101.8 201.1 100.8C203.5 100.5 206 100.3 208.5 100.4C210.5 100.5 212.5 99.7 213.9 98.4C215.3 97 216.1 95.2 216.1 93.3V60.8C216.2 56.9 213.2 53.8 209.4 53.6ZM179.3 97.6C179.3 99.3 177.9 100.7 176.2 100.7C174.5 100.7 173.1 99.3 173.1 97.6V77.1C173.1 75.4 174.5 74 176.2 74C177.9 74 179.3 75.4 179.3 77.1V97.6Z" fill="#0A0A0A"/>
</g>
<mask id="mask0_1716_5898" style="mask-type:luminance" maskUnits="userSpaceOnUse" x="0" y="0" width="294" height="294">
<path d="M147 294C228.186 294 294 228.186 294 147C294 65.8141 228.186 0 147 0C65.8141 0 0 65.8141 0 147C0 228.186 65.8141 294 147 294Z" fill="white"/>
</mask>
<g mask="url(#mask0_1716_5898)">
<path d="M152.8 169.6H145.1V177.3H152.8V169.6Z" fill="#63C74D"/>
<path d="M137.4 169.6H114.2V177.3H137.4V169.6Z" fill="#63C74D"/>
<path d="M168.3 154.2H160.6V161.9H168.3V154.2Z" fill="#63C74D"/>
<path d="M152.9 154.2H129.7V161.9H152.9V154.2Z" fill="#63C74D"/>
<path d="M121.9 154.2H114.2V161.9H121.9V154.2Z" fill="#63C74D"/>
<path d="M83.3001 293.3V247H98.8001V239.2H91.0001V123.3H60.1001V146.5H52.4001V154.2H44.6001V169.6H60.1001V177.4H44.6001V185.1H60.1001V192.8H44.6001V200.6H60.1001V208.3H44.6001V216H60.1001V223.8H44.6001V231.5H52.4001V239.2H60.1001V247H44.6001V293.3H83.3001Z" fill="#5A6988"/>
<path d="M199.3 231.5V223.8H207V146.5H199.3V138.8H106.5V231.6H199.3V231.5ZM129.7 154.2H152.9V161.9H129.7V154.2ZM168.3 161.9H160.6V154.2H168.3V161.9ZM145.1 169.6H152.8V177.3H145.1V169.6ZM191.5 146.5V154.2H199.2V169.7H191.5V154.2H183.8V146.5H191.5ZM114.2 154.2H121.9V161.9H114.2V154.2ZM114.2 169.6H137.4V177.3H114.2V169.6Z" fill="#3A4466"/>
<path d="M60.1001 216H44.6001V223.7H60.1001V216Z" fill="#3A4466"/>
<path d="M60.1001 200.6H44.6001V208.3H60.1001V200.6Z" fill="#3A4466"/>
<path d="M60.1001 185.1H44.6001V192.8H60.1001V185.1Z" fill="#3A4466"/>
<path d="M60.1001 169.6H44.6001V177.3H60.1001V169.6Z" fill="#3A4466"/>
<path d="M121.9 270.1H114.2V277.8H121.9V270.1Z" fill="#C0CBDC"/>
<path d="M106.5 270.1H98.8003V277.8H106.5V270.1Z" fill="#C0CBDC"/>
<path d="M114.2 262.4H106.5V270.1H114.2V262.4Z" fill="#C0CBDC"/>
<path d="M83.3003 247V293.4H230.2V247H83.3003ZM214.7 270.1H168.3V262.4H214.7V270.1ZM114.2 285.6V277.9H106.5V285.6H98.8003V277.9H91.0003V270.2H98.7003V262.5H91.0003V254.8H98.7003V262.5H106.4V254.8H114.1V262.5H121.8V254.8H129.5V262.5H122V270.2H129.7V277.9H122V285.6H114.2Z" fill="#C0CBDC"/>
<path d="M199.2 161.9H191.5V169.6H199.2V161.9Z" fill="#C0CBDC"/>
<path d="M91 239.2H222.4V123.2H91V239.2ZM214.7 131V231.5H98.7V131H214.7Z" fill="#C0CBDC"/>
<path d="M121.9 277.9H114.2V285.6H121.9V277.9Z" fill="#8B9BB4"/>
<path d="M106.5 277.9H98.8003V285.6H106.5V277.9Z" fill="#8B9BB4"/>
<path d="M129.7 270.1H122V277.8H129.7V270.1Z" fill="#8B9BB4"/>
<path d="M114.2 270.1H106.5V277.8H114.2V270.1Z" fill="#8B9BB4"/>
<path d="M98.7 270.1H91V277.8H98.7V270.1Z" fill="#8B9BB4"/>
<path d="M214.7 262.4H168.3V270.1H214.7V262.4Z" fill="#8B9BB4"/>
<path d="M121.9 262.4H114.2V270.1H121.9V262.4Z" fill="#8B9BB4"/>
<path d="M106.5 262.4H98.8003V270.1H106.5V262.4Z" fill="#8B9BB4"/>
<path d="M129.7 254.7H122V262.4H129.7V254.7Z" fill="#8B9BB4"/>
<path d="M114.2 254.7H106.5V262.4H114.2V254.7Z" fill="#8B9BB4"/>
<path d="M98.7 254.7H91V262.4H98.7V254.7Z" fill="#8B9BB4"/>
<path d="M207 239.2H98.8003V246.9H207V239.2Z" fill="#8B9BB4"/>
<path d="M106.5 138.7H199.3V146.5H207V223.8H199.3V231.5H214.7V131H106.5V138.7Z" fill="#8B9BB4"/>
<path d="M199.2 154.2H191.5V161.9H199.2V154.2Z" fill="#E0E8E7"/>
<path d="M191.5 146.5H183.8V154.2H191.5V146.5Z" fill="#E0E8E7"/>
<path d="M106.5 131H98.8003V231.5H106.5V131Z" fill="#E0E8E7"/>
</g>
<g opacity="0.5">
<path d="M147.9 284.1C72.2998 284.1 10.7998 222.6 10.7998 147C10.7998 71.3999 72.2998 9.8999 147.9 9.8999C223.5 9.8999 285 71.3999 285 147C285 222.6 223.5 284.1 147.9 284.1ZM147.9 14.0999C74.5998 14.0999 14.9998 73.6999 14.9998 147C14.9998 220.3 74.5998 279.9 147.9 279.9C221.2 279.9 280.8 220.3 280.8 147C280.8 73.6999 221.2 14.0999 147.9 14.0999Z" fill="#0A0A0A"/>
</g>
</g>
<defs>
<radialGradient id="paint0_radial_1716_5898" cx="0" cy="0" r="1" gradientUnits="userSpaceOnUse" gradientTransform="translate(147 147) scale(147)">
<stop stop-color="#D7F4CE"/>
<stop offset="0.284" stop-color="#C6F3B7"/>
<stop offset="1" stop-color="#9CF27F"/>
</radialGradient>
<clipPath id="clip0_1716_5898">
<rect width="294" height="294" fill="white"/>
</clipPath>
</defs>
</svg>
