<svg width="294" height="294" viewBox="0 0 294 294" fill="none" xmlns="http://www.w3.org/2000/svg">
<g clip-path="url(#clip0_1716_5999)">
<path d="M245 82.4C243.8 70 242.3 57.7 240.5 45.5C237.7 26.5 223.2 11.1 204.5 7C182.9 2.4 160.8 0 139 0C117.1 0 94.9998 2.4 73.3998 7.1C54.6998 11.1 40.1998 26.6 37.3998 45.6C35.5998 57.8 34.0998 70.2 32.8998 82.5C30.8998 104 29.7998 125.6 29.7998 147.1C29.7998 170 30.9998 193.1 33.2998 216C34.3998 226.9 35.6998 237.8 37.2998 248.6C40.0998 267.6 54.5998 283 73.2998 287.1C94.9998 291.8 117 294.2 138.9 294.2C160.8 294.2 182.8 291.8 204.5 287.1C223.2 283.1 237.7 267.6 240.5 248.6C242.1 237.8 243.4 226.9 244.5 216C246.8 193.1 248 170 248 147.1C248.1 125.5 247.1 103.9 245 82.4Z" fill="url(#paint0_radial_1716_5999)"/>
<path opacity="0.35" d="M245 82.3999H32.8998C30.8998 103.9 29.7998 125.5 29.7998 147C29.7998 169.9 30.9998 193 33.2998 215.9H244.6C246.9 193 248.1 169.9 248.1 147C248.1 125.5 247.1 103.9 245 82.3999Z" fill="#F0F5FF"/>
<g opacity="0.75">
<path opacity="0.5" d="M166 39.5001C164.8 38.8001 163.3 38.8001 162 39.5001L129.3 57.6001C128.1 58.3001 127.4 59.5001 127.4 60.9001V97.1001C127.4 98.4001 128.2 99.7001 129.3 100.4L162 118.5C163.2 119.2 164.7 119.2 166 118.5L198.7 100.4C199.9 99.7001 200.6 98.5001 200.6 97.1001V60.9001C200.6 59.6001 199.8 58.3001 198.7 57.6001L166 39.5001Z" fill="#0A0A0A"/>
<path opacity="0.5" d="M198.8 57.6001L165.9 39.5001C165.6 39.4001 165.2 39.2001 164.9 39.1001L128 99.5001C128.3 99.9001 128.7 100.2 129.1 100.4L162 118.5C162.9 119 164 119.2 165 118.9L199.6 58.3001C199.5 58.0001 199.2 57.8001 198.8 57.6001Z" fill="#0A0A0A"/>
<path opacity="0.5" d="M198.8 100.4C199.7 99.9001 200.4 99.0001 200.7 98.0001L164.7 39.1001C163.8 39.0001 162.8 39.0001 161.9 39.5001L129.2 57.5001L164.4 119C164.9 118.9 165.4 118.8 165.9 118.6L198.8 100.4Z" fill="#0A0A0A"/>
</g>
<mask id="mask0_1716_5999" style="mask-type:luminance" maskUnits="userSpaceOnUse" x="29" y="0" width="220" height="295">
<path d="M245 82.4C243.8 70 242.3 57.7 240.5 45.5C237.7 26.5 223.2 11.1 204.5 7C182.9 2.4 160.8 0 139 0C117.1 0 94.9998 2.4 73.3998 7.1C54.6998 11.1 40.1998 26.6 37.3998 45.6C35.5998 57.8 34.0998 70.2 32.8998 82.5C30.8998 104 29.7998 125.6 29.7998 147.1C29.7998 170 30.9998 193.1 33.2998 216C34.3998 226.9 35.6998 237.8 37.2998 248.6C40.0998 267.6 54.5998 283 73.2998 287.1C94.9998 291.8 117 294.2 138.9 294.2C160.8 294.2 182.8 291.8 204.5 287.1C223.2 283.1 237.7 267.6 240.5 248.6C242.1 237.8 243.4 226.9 244.5 216C246.8 193.1 248 170 248 147.1C248.1 125.5 247.1 103.9 245 82.4Z" fill="white"/>
</mask>
<g mask="url(#mask0_1716_5999)">
<path d="M119.7 212.7V137.2H107.1V149.8H100.8V156.1H88.1998V162.4H69.2998V212.7H119.7Z" fill="#E43B44"/>
<path d="M113.4 219V212.7H69.2998V162.4H56.7998V156.1H44.1998V149.8H37.8998V137.2H25.2998V212.7H31.5998V219H113.4Z" fill="#A22633"/>
<path d="M94.4997 137.2H88.1997V156.1H94.4997V137.2Z" fill="#D77643"/>
<path d="M81.8996 149.8H75.5996V162.4H81.8996V149.8Z" fill="#D77643"/>
<path d="M69.3 137.2H63V162.4H69.3V137.2Z" fill="#D77643"/>
<path d="M81.8998 137.2V130.9H75.5998V118.4H81.8998V112.1H69.2998V137.2H81.8998Z" fill="#D77643"/>
<path d="M37.8996 130.9H31.5996V137.2H37.8996V130.9Z" fill="#D77643"/>
<path d="M113.4 124.7H107.1V131H113.4V124.7Z" fill="#D77643"/>
<path d="M94.4997 112.1H88.1997V131H94.4997V112.1Z" fill="#D77643"/>
<path d="M63.0998 118.4H56.7998V124.7H63.0998V118.4Z" fill="#D77643"/>
<path d="M44.1999 156.1H50.4999V112.1H37.8999V118.4H44.1999V156.1Z" fill="#D77643"/>
<path d="M56.8 162.4H63V130.9H50.5V156.1H56.8V162.4Z" fill="#FEAE34"/>
<path d="M100.8 149.8H107.1V137.2H113.4V130.9H107.1V124.7H94.5V130.9H100.8V137.2H94.5V156.1H100.8V149.8Z" fill="#FEAE34"/>
<path d="M37.8996 149.8H44.1996V124.7H31.5996V130.9H37.8996V149.8Z" fill="#FEAE34"/>
<path d="M31.5998 130.9H25.2998V137.2H31.5998V130.9Z" fill="#FEAE34"/>
<path d="M75.5998 130.9H81.8998V143.5H69.2998V162.4H75.5998V149.8H81.8998V162.4H88.1998V124.7H75.5998V130.9Z" fill="#FEAE34"/>
<path d="M69.3 118.4H63V131H69.3V118.4Z" fill="#FEAE34"/>
<path d="M113.4 118.4H107.1V124.7H113.4V118.4Z" fill="#FEAE34"/>
<path d="M56.8 112.1H63V105.8H50.5V124.7H56.8V112.1Z" fill="#FEAE34"/>
<path d="M107.1 112.1H94.5V118.4H107.1V112.1Z" fill="#FEAE34"/>
<path d="M75.5998 105.8H69.2998V112.1H75.5998V105.8Z" fill="#FEAE34"/>
<path d="M81.8998 137.2H69.2998V143.5H81.8998V137.2Z" fill="#FEE761"/>
<path d="M100.8 130.9H88.1997V137.2H100.8V130.9Z" fill="#FEE761"/>
<path d="M69.3 130.9H63V137.2H69.3V130.9Z" fill="#FEE761"/>
<path d="M63.1 124.7H50.5V131H63.1V124.7Z" fill="#FEE761"/>
<path d="M107.1 118.4H94.5V124.7H107.1V118.4Z" fill="#FEE761"/>
<path d="M88.1996 124.7V112.1H81.8996V118.4H75.5996V124.7H88.1996Z" fill="#FEE761"/>
<path d="M44.1996 118.4H31.5996V124.7H44.1996V118.4Z" fill="#FEE761"/>
<path d="M69.3998 112.1H56.7998V118.4H69.3998V112.1Z" fill="#FEE761"/>
<path d="M100.8 105.8H88.1997V112.1H100.8V105.8Z" fill="#FEE761"/>
<path d="M81.8996 105.8H75.5996V112.1H81.8996V105.8Z" fill="#FEE761"/>
<path d="M50.4999 105.8H37.8999V112.1H50.4999V105.8Z" fill="#FEE761"/>
<path d="M63.1 99.5H50.5V105.8H63.1V99.5Z" fill="#FEE761"/>
</g>
<path opacity="0.5" d="M139 288.6C117.5 288.6 95.9998 286.3 74.5998 281.7C57.9998 278.1 45.2998 264.5 42.7998 247.7C37.7998 214.5 35.2998 180.6 35.2998 147C35.2998 113.4 37.7998 79.4999 42.7998 46.2999C45.2998 29.5999 58.0998 15.8999 74.5998 12.2999C117.3 3.0999 160.7 3.0999 203.4 12.2999C220 15.8999 232.8 29.4999 235.3 46.2999C240.3 79.4999 242.8 113.4 242.8 147C242.8 180.6 240.3 214.5 235.3 247.7C232.8 264.4 220 278.1 203.4 281.7C182 286.3 160.5 288.6 139 288.6ZM139 8.9999C117.7 8.9999 96.4998 11.2999 75.2998 15.7999C60.1998 19.0999 48.4998 31.4999 46.1998 46.7999C41.2998 79.8999 38.7998 113.6 38.7998 147C38.7998 180.4 41.2998 214.1 46.1998 247.2C48.4998 262.5 60.1998 274.9 75.2998 278.2C117.5 287.3 160.4 287.3 202.6 278.2C217.7 274.9 229.4 262.5 231.7 247.2C236.6 214.2 239.1 180.5 239.1 147C239.1 113.6 236.6 79.8999 231.7 46.7999C229.4 31.4999 217.7 19.0999 202.6 15.7999C181.5 11.2999 160.2 8.9999 139 8.9999Z" fill="#0A0A0A"/>
<g opacity="0.5">
<path d="M138.9 281.9C117.9 281.9 96.6999 279.6 75.8999 275.1C62.0999 272.1 51.3999 260.7 49.2999 246.7C44.3999 213.8 41.8999 180.3 41.8999 147C41.8999 113.7 44.3999 80.1999 49.2999 47.2999C51.3999 33.2999 62.0999 21.8999 75.8999 18.8999C117.5 9.8999 160.3 9.8999 201.9 18.8999C215.7 21.8999 226.4 33.2999 228.5 47.2999C233.4 80.1999 235.9 113.7 235.9 147C235.9 180.3 233.4 213.8 228.5 246.7C226.4 260.7 215.7 272.1 201.9 275.1C181.2 279.6 160 281.9 138.9 281.9ZM138.9 13.8999C118 13.8999 96.9999 16.1999 76.2999 20.5999C63.1999 23.3999 53.0999 34.2999 51.0999 47.4999C46.1999 80.2999 43.6999 113.8 43.6999 146.9C43.6999 180.1 46.1999 213.5 51.0999 246.3C53.0999 259.6 63.1999 270.4 76.2999 273.2C117.7 282.1 160.2 282.1 201.5 273.2C214.6 270.4 224.8 259.5 226.7 246.3C231.6 213.5 234.1 180 234.1 146.9C234.1 113.7 231.6 80.2999 226.7 47.4999C224.7 34.1999 214.6 23.3999 201.5 20.5999C180.9 16.1999 159.8 13.8999 138.9 13.8999Z" fill="#0A0A0A"/>
</g>
<path d="M181.7 234.2H174.8V241.1H181.7V234.2Z" fill="#63C74D"/>
<path d="M147.4 234.2H140.5V241.1H147.4V234.2Z" fill="#63C74D"/>
<path d="M140.5 234.2H133.6V241.1H140.5V234.2Z" fill="#63C74D"/>
<path d="M126.8 234.2H119.9V241.1H126.8V234.2Z" fill="#63C74D"/>
<path d="M119.9 234.2H113V241.1H119.9V234.2Z" fill="#63C74D"/>
<path d="M229.8 193H222.9V199.9H229.8V193Z" fill="#63C74D"/>
<path d="M223 193H216.1V199.9H223V193Z" fill="#63C74D"/>
<path d="M216.1 193H209.2V199.9H216.1V193Z" fill="#63C74D"/>
<path d="M174.9 193H168V199.9H174.9V193Z" fill="#63C74D"/>
<path d="M236.7 241.1H216.1V248H236.7V241.1Z" fill="#265C42"/>
<path d="M243.6 234.2H236.7V241.1H243.6V234.2Z" fill="#265C42"/>
<path d="M161 234.2H147.3V241.1H161V234.2Z" fill="#265C42"/>
<path d="M250.5 193H243.6V199.9H250.5V193Z" fill="#265C42"/>
<path d="M202.3 193H188.6V199.9H202.3V193Z" fill="#265C42"/>
<path d="M181.7 193H174.8V199.9H181.7V193Z" fill="#265C42"/>
<path d="M126.7 193H113V199.9H126.7V193Z" fill="#265C42"/>
<path d="M181.7 241.1H174.8V248H181.7V241.1Z" fill="#3E8948"/>
<path d="M161.1 241.1H140.5V248H161.1V241.1Z" fill="#3E8948"/>
<path d="M257.3 234.2H243.6V241.1H257.3V234.2Z" fill="#3E8948"/>
<path d="M181.7 234.2V241.1H202.3V248H216.1V241.1H236.7V234.2H181.7Z" fill="#3E8948"/>
<path d="M174.8 234.2H161.1V241.1H174.8V234.2Z" fill="#3E8948"/>
<path d="M133.6 234.2H126.7V241.1H133.6V234.2Z" fill="#3E8948"/>
<path d="M113 234.2H106.1V241.1H113V234.2Z" fill="#3E8948"/>
<path d="M264.1 193H250.4V199.9H264.1V193Z" fill="#3E8948"/>
<path d="M243.5 193H229.8V199.9H243.5V193Z" fill="#3E8948"/>
<path d="M209.2 193H202.3V199.9H209.2V193Z" fill="#3E8948"/>
<path d="M188.6 193H181.7V199.9H188.6V193Z" fill="#3E8948"/>
<path d="M167.9 193H126.7V199.9H167.9V193Z" fill="#3E8948"/>
<path d="M99.1997 193V206.7H106.1V199.9H113V193H99.1997Z" fill="#3E8948"/>
<path d="M202.3 199.9H174.8V206.8H202.3V199.9Z" fill="#E43B44"/>
<path d="M140.5 199.9H106.1V206.8H140.5V199.9Z" fill="#E43B44"/>
<path d="M250.4 241.1H243.6V248H202.3V241.1H195.5V248H168V241.1H161.1V248H126.7V241.1H106.1V254.8H113V261.7H250.4V254.8H257.3V248H250.4V241.1Z" fill="#E4A672"/>
<path d="M250.4 172.4H113V179.2H106.1V186.1H257.3V179.2H250.4V172.4Z" fill="#E4A672"/>
<path d="M257.3 199.9H243.6V206.8H257.3V199.9Z" fill="#A22633"/>
<path d="M236.7 199.9H202.3V206.8H236.7V199.9Z" fill="#A22633"/>
<path d="M174.9 199.9H140.5V206.8H174.9V199.9Z" fill="#A22633"/>
<path d="M243.6 199.9H236.7V206.7H113V213.6H181.7V220.5H202.3V213.6H250.4V206.7H243.6V199.9Z" fill="#F77622"/>
<path d="M250.5 261.7H113V268.6H250.5V261.7Z" fill="#D77643"/>
<path d="M257.3 254.8H250.4V261.7H257.3V254.8Z" fill="#D77643"/>
<path d="M113 254.8H106.1V261.7H113V254.8Z" fill="#D77643"/>
<path d="M257.3 241.1H250.4V248H257.3V241.1Z" fill="#D77643"/>
<path d="M243.6 241.1H236.7V248H243.6V241.1Z" fill="#D77643"/>
<path d="M195.4 241.1H181.7V248H195.4V241.1Z" fill="#D77643"/>
<path d="M174.9 241.1H168V248H174.9V241.1Z" fill="#D77643"/>
<path d="M140.4 241.1H126.7V248H140.4V241.1Z" fill="#D77643"/>
<path d="M250.4 172.4V165.5H243.5V158.6H229.8V165.5H222.9V158.6H229.8V151.7H216.1V158.6H209.2V151.7H202.3V144.8H195.4V151.7H188.5V144.8H181.6V151.7H174.7V144.8H161V151.7H147.3V158.6H140.4V151.7H133.5V158.6H119.8V165.5H113V172.4H250.4ZM188.6 158.6V165.5H181.7V158.6H188.6ZM174.8 165.5H168V158.6H174.9V165.5H174.8Z" fill="#D77643"/>
<path d="M222.9 220.5H243.6V213.6H202.3V227.4H222.9V220.5Z" fill="#FEAE34"/>
<path d="M126.7 220.5V227.4H174.8V220.5H181.7V213.6H113V220.5H126.7Z" fill="#FEAE34"/>
<path d="M264.1 206.7H250.4V213.6H264.1V206.7Z" fill="#FEAE34"/>
<path d="M112.9 206.7H99.1997V213.6H112.9V206.7Z" fill="#FEAE34"/>
<path d="M257.3 186.1H106.1V193H257.3V186.1Z" fill="#EAD4AA"/>
<path d="M229.8 158.6H222.9V165.5H229.8V158.6Z" fill="#EAD4AA"/>
<path d="M188.6 158.6H181.7V165.5H188.6V158.6Z" fill="#EAD4AA"/>
<path d="M174.9 158.6H168V165.5H174.9V158.6Z" fill="#EAD4AA"/>
<path d="M216.1 151.7H209.2V158.6H216.1V151.7Z" fill="#EAD4AA"/>
<path d="M147.4 151.7H140.5V158.6H147.4V151.7Z" fill="#EAD4AA"/>
<path d="M195.5 144.9H188.6V151.8H195.5V144.9Z" fill="#EAD4AA"/>
<path d="M181.7 144.9H174.8V151.8H181.7V144.9Z" fill="#EAD4AA"/>
<path d="M161.1 144.9H154.2V151.8H161.1V144.9Z" fill="#EAD4AA"/>
<path d="M243.6 213.6V220.5H222.9V227.4H202.3V220.5H174.8V227.4H126.7V220.5H113V213.6H99.1997V234.2H264.2V213.6H243.6Z" fill="#733E39"/>
</g>
<defs>
<radialGradient id="paint0_radial_1716_5999" cx="0" cy="0" r="1" gradientUnits="userSpaceOnUse" gradientTransform="translate(138.951 147) scale(129.461 129.461)">
<stop stop-color="#9CF27F"/>
<stop offset="0.4115" stop-color="#73E55C"/>
<stop offset="1" stop-color="#3BD42D"/>
</radialGradient>
<clipPath id="clip0_1716_5999">
<rect width="294" height="294" fill="white"/>
</clipPath>
</defs>
</svg>
