<svg width="294" height="294" viewBox="0 0 294 294" fill="none" xmlns="http://www.w3.org/2000/svg">
<g clip-path="url(#clip0_1716_6223)">
<path d="M245 83.4004C243.8 71.0004 242.3 58.7004 240.5 46.5004C237.7 27.5004 223.2 12.1004 204.5 8.00039C182.9 3.30039 160.8 0.900391 138.9 0.900391C117.1 0.900391 94.9998 3.30039 73.3998 8.00039C54.6998 12.0004 40.1998 27.5004 37.3998 46.5004C35.4998 58.7004 33.9998 71.0004 32.8998 83.4004C30.8998 104.9 29.7998 126.5 29.7998 148C29.7998 170.9 30.9998 194 33.2998 216.9C34.3998 227.8 35.6998 238.7 37.2998 249.5C40.0998 268.5 54.5998 283.9 73.2998 288C94.9998 292.7 117 295.1 138.9 295.1C160.8 295.1 182.8 292.7 204.5 288C223.2 284 237.7 268.5 240.5 249.5C242.1 238.7 243.4 227.8 244.5 216.9C246.8 194 248 170.9 248 148C248.1 126.4 247.1 104.8 245 83.4004Z" fill="#E3CC50"/>
<path d="M245 83.4004H32.8998C30.8998 104.9 29.7998 126.5 29.7998 148C29.7998 170.9 30.9998 194 33.2998 216.9H244.6C246.9 194 248.1 170.9 248.1 148C248.1 126.4 247.1 104.8 245 83.4004Z" fill="url(#paint0_radial_1716_6223)"/>
<path opacity="0.25" d="M166 40.5006C164.8 39.8006 163.3 39.8006 162 40.5006L129.3 58.6006C128.1 59.3006 127.4 60.5006 127.4 61.9006V98.1006C127.4 99.4006 128.2 100.701 129.3 101.401L162 119.501C163.2 120.201 164.7 120.201 166 119.501L198.7 101.401C199.9 100.701 200.6 99.5006 200.6 98.1006V61.8006C200.6 60.5006 199.8 59.2006 198.7 58.5006L166 40.5006Z" fill="#F0F5FF"/>
<path opacity="0.5" d="M198.8 58.6006L165.9 40.5006C165.6 40.4006 165.2 40.2006 164.9 40.1006L128 100.501C128.3 100.901 128.7 101.201 129.1 101.401L162 119.501C162.9 120.001 164 120.201 165 119.901L199.6 59.3006C199.5 58.9006 199.2 58.7006 198.8 58.6006Z" fill="#F0F5FF"/>
<path opacity="0.5" d="M198.8 101.4C199.7 100.9 200.4 100 200.7 99.0001L164.7 40.1001C163.8 40.0001 162.8 40.0001 161.9 40.5001L129.2 58.5001L164.4 120C164.9 119.9 165.4 119.8 165.9 119.6L198.8 101.4Z" fill="#F0F5FF"/>
<mask id="mask0_1716_6223" style="mask-type:luminance" maskUnits="userSpaceOnUse" x="29" y="0" width="220" height="296">
<path d="M245 83.4004C243.8 71.0004 242.3 58.7004 240.5 46.5004C237.7 27.5004 223.2 12.1004 204.5 8.00039C182.9 3.30039 160.8 0.900391 138.9 0.900391C117.1 0.900391 94.9998 3.30039 73.3998 8.00039C54.6998 12.0004 40.1998 27.5004 37.3998 46.5004C35.4998 58.7004 33.9998 71.0004 32.8998 83.4004C30.8998 104.9 29.7998 126.5 29.7998 148C29.7998 170.9 30.9998 194 33.2998 216.9C34.3998 227.8 35.6998 238.7 37.2998 249.5C40.0998 268.5 54.5998 283.9 73.2998 288C94.9998 292.7 117 295.1 138.9 295.1C160.8 295.1 182.8 292.7 204.5 288C223.2 284 237.7 268.5 240.5 249.5C242.1 238.7 243.4 227.8 244.5 216.9C246.8 194 248 170.9 248 148C248.1 126.4 247.1 104.8 245 83.4004Z" fill="white"/>
</mask>
<g mask="url(#mask0_1716_6223)">
<path d="M119.7 213.7V138.2H107.1V150.8H100.8V157.1H88.1998V163.3H69.2998V213.7H119.7Z" fill="#E43B44"/>
<path d="M113.4 220V213.7H69.2998V163.3H56.7998V157.1H44.1998V150.8H37.8998V138.2H25.2998V213.7H31.5998V220H113.4Z" fill="#A22633"/>
<path d="M94.4997 138.2H88.1997V157.1H94.4997V138.2Z" fill="#D77643"/>
<path d="M81.8996 150.801H75.5996V163.401H81.8996V150.801Z" fill="#D77643"/>
<path d="M69.3 138.2H63V163.4H69.3V138.2Z" fill="#D77643"/>
<path d="M81.8998 138.2V131.9H75.5998V119.3H81.8998V113H69.2998V138.2H81.8998Z" fill="#D77643"/>
<path d="M37.8996 131.9H31.5996V138.2H37.8996V131.9Z" fill="#D77643"/>
<path d="M113.4 125.601H107.1V131.901H113.4V125.601Z" fill="#D77643"/>
<path d="M94.4997 113H88.1997V131.9H94.4997V113Z" fill="#D77643"/>
<path d="M63.0998 119.301H56.7998V125.601H63.0998V119.301Z" fill="#D77643"/>
<path d="M44.1999 157.1H50.4999V113H37.8999V119.3H44.1999V157.1Z" fill="#D77643"/>
<path d="M56.8 163.3H63V131.9H50.5V157.1H56.8V163.3Z" fill="#FEAE34"/>
<path d="M100.8 150.801H107.1V138.201H113.4V131.901H107.1V125.601H94.5V131.901H100.8V138.201H94.5V157.101H100.8V150.801Z" fill="#FEAE34"/>
<path d="M37.8996 150.801H44.1996V125.601H31.5996V131.901H37.8996V150.801Z" fill="#FEAE34"/>
<path d="M31.5998 131.9H25.2998V138.2H31.5998V131.9Z" fill="#FEAE34"/>
<path d="M75.5998 131.901H81.8998V144.501H69.2998V163.301H75.5998V150.801H81.8998V163.301H88.1998V125.601H75.5998V131.901Z" fill="#FEAE34"/>
<path d="M69.3 119.301H63V131.901H69.3V119.301Z" fill="#FEAE34"/>
<path d="M113.4 119.301H107.1V125.601H113.4V119.301Z" fill="#FEAE34"/>
<path d="M56.8 113H63V106.7H50.5V125.6H56.8V113Z" fill="#FEAE34"/>
<path d="M107.1 113H94.5V119.3H107.1V113Z" fill="#FEAE34"/>
<path d="M75.5998 106.7H69.2998V113H75.5998V106.7Z" fill="#FEAE34"/>
<path d="M81.8998 138.2H69.2998V144.5H81.8998V138.2Z" fill="#FEE761"/>
<path d="M100.8 131.9H88.1997V138.2H100.8V131.9Z" fill="#FEE761"/>
<path d="M69.3 131.9H63V138.2H69.3V131.9Z" fill="#FEE761"/>
<path d="M63.1 125.601H50.5V131.901H63.1V125.601Z" fill="#FEE761"/>
<path d="M107.1 119.301H94.5V125.601H107.1V119.301Z" fill="#FEE761"/>
<path d="M88.1996 125.6V113H81.8996V119.3H75.5996V125.6H88.1996Z" fill="#FEE761"/>
<path d="M44.1996 119.301H31.5996V125.601H44.1996V119.301Z" fill="#FEE761"/>
<path d="M69.3998 113H56.7998V119.3H69.3998V113Z" fill="#FEE761"/>
<path d="M100.8 106.7H88.1997V113H100.8V106.7Z" fill="#FEE761"/>
<path d="M81.8996 106.7H75.5996V113H81.8996V106.7Z" fill="#FEE761"/>
<path d="M50.4999 106.7H37.8999V113H50.4999V106.7Z" fill="#FEE761"/>
<path d="M63.1 100.4H50.5V106.7H63.1V100.4Z" fill="#FEE761"/>
</g>
<path opacity="0.75" d="M139 289.501C117.5 289.501 95.9998 287.201 74.5998 282.601C57.9998 279.001 45.2998 265.401 42.7998 248.601C37.7998 215.401 35.2998 181.501 35.2998 147.901C35.2998 114.301 37.7998 80.4008 42.7998 47.2008C45.2998 30.5008 58.0998 16.8008 74.5998 13.2008C117.3 4.00078 160.7 4.00078 203.4 13.2008C220 16.8008 232.8 30.4008 235.3 47.2008C240.3 80.4008 242.8 114.301 242.8 147.901C242.8 181.501 240.3 215.401 235.3 248.601C232.8 265.301 220 279.001 203.4 282.601C182 287.201 160.5 289.501 139 289.501ZM139 9.90078C117.7 9.90078 96.4998 12.2008 75.2998 16.7008C60.1998 20.0008 48.4998 32.4008 46.1998 47.7008C41.2998 80.8008 38.7998 114.501 38.7998 147.901C38.7998 181.301 41.2998 215.001 46.1998 248.101C48.4998 263.401 60.1998 275.801 75.2998 279.101C117.5 288.201 160.4 288.201 202.6 279.101C217.7 275.801 229.4 263.401 231.7 248.101C236.6 215.101 239.1 181.401 239.1 147.901C239.1 114.501 236.6 80.8008 231.7 47.7008C229.4 32.4008 217.7 20.0008 202.6 16.7008C181.5 12.2008 160.2 9.90078 139 9.90078Z" fill="#F0F5FF"/>
<g opacity="0.5">
<path d="M138.9 282.801C117.9 282.801 96.6999 280.501 75.8999 276.001C62.0999 273.001 51.3999 261.601 49.2999 247.601C44.3999 214.701 41.8999 181.201 41.8999 147.901C41.8999 114.601 44.3999 81.1008 49.2999 48.2008C51.3999 34.2008 62.0999 22.8008 75.8999 19.8008C117.5 10.8008 160.3 10.8008 201.9 19.8008C215.7 22.8008 226.4 34.2008 228.5 48.2008C233.4 81.1008 235.9 114.601 235.9 147.901C235.9 181.201 233.4 214.701 228.5 247.601C226.4 261.601 215.7 273.001 201.9 276.001C181.2 280.501 160 282.801 138.9 282.801ZM138.9 14.8008C118 14.8008 96.9999 17.1008 76.2999 21.5008C63.1999 24.3008 53.0999 35.2008 51.0999 48.4008C46.1999 81.2008 43.6999 114.701 43.6999 147.801C43.6999 181.001 46.1999 214.401 51.0999 247.201C53.0999 260.501 63.1999 271.301 76.2999 274.101C117.7 283.001 160.2 283.001 201.5 274.101C214.6 271.301 224.8 260.401 226.7 247.201C231.6 214.401 234.1 180.901 234.1 147.801C234.1 114.601 231.6 81.2008 226.7 48.4008C224.7 35.1008 214.6 24.3008 201.5 21.5008C180.9 17.1008 159.8 14.8008 138.9 14.8008Z" fill="#F0F5FF"/>
</g>
<path d="M181.7 235.2H174.8V242.1H181.7V235.2Z" fill="#63C74D"/>
<path d="M147.4 235.2H140.5V242.1H147.4V235.2Z" fill="#63C74D"/>
<path d="M140.5 235.2H133.6V242.1H140.5V235.2Z" fill="#63C74D"/>
<path d="M126.8 235.2H119.9V242.1H126.8V235.2Z" fill="#63C74D"/>
<path d="M119.9 235.2H113V242.1H119.9V235.2Z" fill="#63C74D"/>
<path d="M229.8 193.9H222.9V200.8H229.8V193.9Z" fill="#63C74D"/>
<path d="M223 193.9H216.1V200.8H223V193.9Z" fill="#63C74D"/>
<path d="M216.1 193.9H209.2V200.8H216.1V193.9Z" fill="#63C74D"/>
<path d="M174.9 193.9H168V200.8H174.9V193.9Z" fill="#63C74D"/>
<path d="M236.7 242H216.1V248.9H236.7V242Z" fill="#265C42"/>
<path d="M243.6 235.2H236.7V242.1H243.6V235.2Z" fill="#265C42"/>
<path d="M161 235.2H147.3V242.1H161V235.2Z" fill="#265C42"/>
<path d="M250.5 193.9H243.6V200.8H250.5V193.9Z" fill="#265C42"/>
<path d="M202.3 193.9H188.6V200.8H202.3V193.9Z" fill="#265C42"/>
<path d="M181.7 193.9H174.8V200.8H181.7V193.9Z" fill="#265C42"/>
<path d="M126.7 193.9H113V200.8H126.7V193.9Z" fill="#265C42"/>
<path d="M181.7 242H174.8V248.9H181.7V242Z" fill="#3E8948"/>
<path d="M161.1 242H140.5V248.9H161.1V242Z" fill="#3E8948"/>
<path d="M257.3 235.2H243.6V242.1H257.3V235.2Z" fill="#3E8948"/>
<path d="M181.7 235.2V242H202.3V248.9H216.1V242H236.7V235.2H181.7Z" fill="#3E8948"/>
<path d="M174.8 235.2H161.1V242.1H174.8V235.2Z" fill="#3E8948"/>
<path d="M133.6 235.2H126.7V242.1H133.6V235.2Z" fill="#3E8948"/>
<path d="M113 235.2H106.1V242.1H113V235.2Z" fill="#3E8948"/>
<path d="M264.1 193.9H250.4V200.8H264.1V193.9Z" fill="#3E8948"/>
<path d="M243.5 193.9H229.8V200.8H243.5V193.9Z" fill="#3E8948"/>
<path d="M209.2 193.9H202.3V200.8H209.2V193.9Z" fill="#3E8948"/>
<path d="M188.6 193.9H181.7V200.8H188.6V193.9Z" fill="#3E8948"/>
<path d="M167.9 193.9H126.7V200.8H167.9V193.9Z" fill="#3E8948"/>
<path d="M99.1997 193.9V207.7H106.1V200.8H113V193.9H99.1997Z" fill="#3E8948"/>
<path d="M202.3 200.8H174.8V207.7H202.3V200.8Z" fill="#E43B44"/>
<path d="M140.5 200.8H106.1V207.7H140.5V200.8Z" fill="#E43B44"/>
<path d="M250.4 242H243.6V248.9H202.3V242H195.5V248.9H168V242H161.1V248.9H126.7V242H106.1V255.8H113V262.7H250.4V255.8H257.3V248.9H250.4V242Z" fill="#E4A672"/>
<path d="M250.4 173.3H113V180.2H106.1V187H257.3V180.2H250.4V173.3Z" fill="#E4A672"/>
<path d="M257.3 200.8H243.6V207.7H257.3V200.8Z" fill="#A22633"/>
<path d="M236.7 200.8H202.3V207.7H236.7V200.8Z" fill="#A22633"/>
<path d="M174.9 200.8H140.5V207.7H174.9V200.8Z" fill="#A22633"/>
<path d="M243.6 200.8H236.7V207.7H113V214.5H181.7V221.4H202.3V214.5H250.4V207.7H243.6V200.8Z" fill="#F77622"/>
<path d="M250.5 262.7H113V269.6H250.5V262.7Z" fill="#D77643"/>
<path d="M257.3 255.8H250.4V262.7H257.3V255.8Z" fill="#D77643"/>
<path d="M113 255.8H106.1V262.7H113V255.8Z" fill="#D77643"/>
<path d="M257.3 242H250.4V248.9H257.3V242Z" fill="#D77643"/>
<path d="M243.6 242H236.7V248.9H243.6V242Z" fill="#D77643"/>
<path d="M195.4 242H181.7V248.9H195.4V242Z" fill="#D77643"/>
<path d="M174.9 242H168V248.9H174.9V242Z" fill="#D77643"/>
<path d="M140.4 242H126.7V248.9H140.4V242Z" fill="#D77643"/>
<path d="M250.4 173.3V166.4H243.5V159.5H229.8V166.4H222.9V159.5H229.8V152.6H216.1V159.5H209.2V152.6H202.3V145.7H195.4V152.6H188.5V145.7H181.6V152.6H174.7V145.7H161V152.6H147.3V159.5H140.4V152.6H133.5V159.5H119.8V166.4H113V173.3H250.4ZM188.6 159.6V166.5H181.7V159.6H188.6ZM174.8 166.4H168V159.5H174.9V166.4H174.8Z" fill="#D77643"/>
<path d="M222.9 221.4H243.6V214.5H202.3V228.3H222.9V221.4Z" fill="#FEAE34"/>
<path d="M126.7 221.4V228.3H174.8V221.4H181.7V214.5H113V221.4H126.7Z" fill="#FEAE34"/>
<path d="M264.1 207.7H250.4V214.6H264.1V207.7Z" fill="#FEAE34"/>
<path d="M112.9 207.7H99.1997V214.6H112.9V207.7Z" fill="#FEAE34"/>
<path d="M257.3 187H106.1V193.9H257.3V187Z" fill="#EAD4AA"/>
<path d="M229.8 159.601H222.9V166.501H229.8V159.601Z" fill="#EAD4AA"/>
<path d="M188.6 159.601H181.7V166.501H188.6V159.601Z" fill="#EAD4AA"/>
<path d="M174.9 159.601H168V166.501H174.9V159.601Z" fill="#EAD4AA"/>
<path d="M216.1 152.7H209.2V159.6H216.1V152.7Z" fill="#EAD4AA"/>
<path d="M147.4 152.7H140.5V159.6H147.4V152.7Z" fill="#EAD4AA"/>
<path d="M195.5 145.8H188.6V152.7H195.5V145.8Z" fill="#EAD4AA"/>
<path d="M181.7 145.8H174.8V152.7H181.7V145.8Z" fill="#EAD4AA"/>
<path d="M161.1 145.8H154.2V152.7H161.1V145.8Z" fill="#EAD4AA"/>
<path d="M243.6 214.5V221.4H222.9V228.3H202.3V221.4H174.8V228.3H126.7V221.4H113V214.5H99.1997V235.2H264.2V214.5H243.6Z" fill="#733E39"/>
</g>
<defs>
<radialGradient id="paint0_radial_1716_6223" cx="0" cy="0" r="1" gradientUnits="userSpaceOnUse" gradientTransform="translate(138.951 150.114) scale(90.4575 90.4575)">
<stop stop-color="#E3D664"/>
<stop offset="0.284" stop-color="#D4BF4F"/>
<stop offset="1" stop-color="#B1871C"/>
</radialGradient>
<clipPath id="clip0_1716_6223">
<rect width="294" height="294" fill="white"/>
</clipPath>
</defs>
</svg>
