<svg width="294" height="294" viewBox="0 0 294 294" fill="none" xmlns="http://www.w3.org/2000/svg">
<path d="M136.3 294C84.7002 294 42.7002 252 42.7002 200.4V93.6C42.7002 42 84.7002 0 136.3 0C158.3 0 179.7 7.8 196.6 22C217.8 39.8 229.9 65.9 229.9 93.6V200.5C229.9 252 187.9 294 136.3 294Z" fill="url(#paint0_radial_1716_6447)"/>
<path opacity="0.35" d="M229.9 107.2V93.6C229.9 65.9 217.8 39.9 196.6 22C179.8 7.8 158.4 0 136.3 0C84.7002 0 42.7002 42 42.7002 93.6V190.4L229.9 107.2Z" fill="#F0F5FF"/>
<mask id="mask0_1716_6447" style="mask-type:luminance" maskUnits="userSpaceOnUse" x="42" y="0" width="188" height="294">
<path d="M136.3 294C84.7002 294 42.7002 252 42.7002 200.4V93.6C42.7002 42 84.7002 0 136.3 0C158.3 0 179.7 7.8 196.6 22C217.8 39.8 229.9 65.9 229.9 93.6V200.5C229.9 252 187.9 294 136.3 294Z" fill="white"/>
</mask>
<g mask="url(#mask0_1716_6447)">
<path d="M123.2 281.8H97.3003V290.4H123.2V281.8Z" fill="#5A6988"/>
<path d="M114.5 221.5H97.3003V238.7H114.5V221.5Z" fill="#5A6988"/>
<path d="M88.7002 221.5H54.2002V238.7H88.7002V221.5Z" fill="#5A6988"/>
<path d="M45.5003 221.5H28.3003V238.7H45.5003V221.5Z" fill="#5A6988"/>
<path d="M114.5 169.7H28.3003V186.9H114.5V169.7Z" fill="#5A6988"/>
<path d="M19.7002 281.8V307.7H36.9002V316.3H45.6002V307.7H62.8002V281.8H19.7002Z" fill="#3A4466"/>
<path d="M140.4 118H2.40029V126.6H-6.19971V264.6H2.40029V273.2H140.4V264.6H149V126.6H140.4V118ZM131.8 247.3H123.2V255.9H19.7003V247.3H11.1003V143.8H19.7003V135.2H123.2V143.8H131.8V247.3Z" fill="#C0CBDC"/>
<path d="M140.4 273.2H2.40029V264.6H-6.19971V290.5H2.40029V299.1H19.6003V281.9H62.7003V299.1H140.3V290.5H148.9V264.6H140.3V273.2H140.4ZM97.3003 290.5V281.9H123.2V290.5H97.3003Z" fill="#8B9BB4"/>
<path d="M123.2 256V247.4H131.8V143.8H123.2V135.2H19.7001V143.8H11.1001V247.3H19.7001V255.9H123.2V256ZM28.3001 221.5H45.5001V238.7H28.3001V221.5ZM28.3001 169.7H114.5V187H28.3001V169.7ZM114.6 238.7H97.3001V221.5H114.5V238.7H114.6ZM54.2001 221.5H88.7001V238.7H54.2001V221.5Z" fill="#8B9BB4"/>
</g>
<g opacity="0.5">
<path d="M176.3 66.7996C176.3 61.4996 169.7 56.4996 159.5 53.3996C161.8 42.9996 160.8 34.7996 156.2 32.0996C155.1 31.4996 153.9 31.1996 152.5 31.1996V34.7996C153.3 34.7996 153.9 34.8996 154.4 35.1996C156.6 36.4996 157.6 41.2996 156.8 47.4996C156.6 48.9996 156.3 50.5996 156 52.2996C152.8 51.4996 149.3 50.8996 145.6 50.4996C143.4 47.4996 141.1 44.6996 138.8 42.2996C144.1 37.3996 149.1 34.6996 152.5 34.6996V31.0996C148 31.0996 142.1 34.2996 136.2 39.7996C130.3 34.2996 124.4 31.0996 119.9 31.0996V34.6996C123.3 34.6996 128.3 37.3996 133.6 42.2996C131.3 44.6996 129 47.3996 126.9 50.3996C123.2 50.7996 119.7 51.3996 116.5 52.1996C116.1 50.5996 115.8 48.9996 115.7 47.4996C114.9 41.2996 115.9 36.3996 118.1 35.0996C118.6 34.7996 119.2 34.6996 120 34.6996V31.0996C118.6 31.0996 117.4 31.3996 116.3 31.9996C111.7 34.5996 110.7 42.8996 113.1 53.1996C103 56.2996 96.4004 61.2996 96.4004 66.5996C96.4004 71.8996 103 76.8996 113.2 79.9996C110.9 90.3996 111.9 98.5996 116.5 101.3C117.6 101.9 118.8 102.2 120.2 102.2C124.7 102.2 130.6 98.9996 136.5 93.4996C142.4 98.9996 148.3 102.2 152.8 102.2C154.2 102.2 155.4 101.9 156.5 101.3C161.1 98.6996 162.1 90.3996 159.7 80.0996C169.7 77.0996 176.3 72.0996 176.3 66.7996ZM155.1 55.8996C154.5 57.9996 153.7 60.1996 152.9 62.2996C152.2 60.9996 151.5 59.6996 150.8 58.3996C150 57.0996 149.3 55.7996 148.5 54.5996C150.7 54.9996 152.9 55.3996 155.1 55.8996ZM147.6 73.2996C146.3 75.4996 145 77.5996 143.7 79.4996C141.3 79.6996 138.8 79.7996 136.3 79.7996C133.8 79.7996 131.4 79.6996 129 79.4996C127.6 77.5996 126.3 75.4996 125.1 73.2996C123.9 71.1996 122.7 68.9996 121.7 66.7996C122.7 64.5996 123.9 62.3996 125.1 60.2996C126.4 58.0996 127.7 55.9996 129 54.0996C131.4 53.8996 133.9 53.7996 136.4 53.7996C138.9 53.7996 141.3 53.8996 143.7 54.0996C145.1 55.9996 146.4 58.0996 147.6 60.2996C148.8 62.3996 150 64.5996 151 66.7996C150 68.9996 148.8 71.1996 147.6 73.2996ZM152.9 71.1996C153.8 73.3996 154.5 75.5996 155.2 77.6996C153.1 78.1996 150.8 78.6996 148.5 78.9996C149.3 77.6996 150.1 76.4996 150.8 75.0996C151.5 73.7996 152.2 72.4996 152.9 71.1996ZM136.3 88.5996C134.8 86.9996 133.3 85.2996 131.8 83.3996C133.3 83.4996 134.8 83.4996 136.3 83.4996C137.8 83.4996 139.3 83.4996 140.8 83.3996C139.4 85.2996 137.8 86.9996 136.3 88.5996ZM124.2 78.9996C121.9 78.6996 119.7 78.1996 117.5 77.6996C118.1 75.5996 118.9 73.3996 119.7 71.2996C120.4 72.5996 121.1 73.8996 121.8 75.1996C122.6 76.4996 123.4 77.6996 124.2 78.9996ZM136.3 44.9996C137.8 46.5996 139.3 48.2996 140.8 50.1996C139.3 50.0996 137.8 50.0996 136.3 50.0996C134.8 50.0996 133.3 50.0996 131.8 50.1996C133.2 48.3996 134.8 46.5996 136.3 44.9996ZM124.2 54.6996C123.4 55.9996 122.6 57.1996 121.9 58.5996C121.1 59.8996 120.4 61.1996 119.8 62.4996C118.9 60.2996 118.2 58.0996 117.5 55.9996C119.6 55.3996 121.9 54.9996 124.2 54.6996ZM109.4 75.0996C103.6 72.5996 99.9004 69.3996 99.9004 66.7996C99.9004 64.1996 103.6 60.9996 109.4 58.4996C110.8 57.8996 112.3 57.3996 113.9 56.8996C114.8 60.0996 116.1 63.3996 117.6 66.7996C116.1 70.1996 114.9 73.4996 114 76.6996C112.4 76.1996 110.9 75.6996 109.4 75.0996ZM118.2 98.3996C116 97.0996 115 92.2996 115.8 86.0996C116 84.5996 116.3 82.9996 116.6 81.2996C119.8 82.0996 123.3 82.6996 127 83.0996C129.2 86.0996 131.5 88.8996 133.8 91.2996C128.5 96.1996 123.5 98.8996 120.1 98.8996C119.3 98.7996 118.7 98.5996 118.2 98.3996ZM156.9 85.8996C157.7 92.0996 156.7 96.9996 154.5 98.2996C154 98.5996 153.4 98.6996 152.6 98.6996C149.2 98.6996 144.2 95.9996 138.9 91.0996C141.2 88.6996 143.5 85.9996 145.6 82.9996C149.3 82.5996 152.8 81.9996 156 81.1996C156.4 82.7996 156.7 84.3996 156.9 85.8996ZM163.2 75.0996C161.8 75.6996 160.3 76.1996 158.7 76.6996C157.8 73.4996 156.5 70.1996 155 66.7996C156.5 63.3996 157.7 60.0996 158.6 56.8996C160.2 57.3996 161.7 57.9996 163.2 58.5996C169 61.0996 172.7 64.2996 172.7 66.8996C172.7 69.3996 168.9 72.5996 163.2 75.0996Z" fill="#090A0A"/>
<path d="M136.3 74.2998C140.442 74.2998 143.8 70.9419 143.8 66.7998C143.8 62.6577 140.442 59.2998 136.3 59.2998C132.158 59.2998 128.8 62.6577 128.8 66.7998C128.8 70.9419 132.158 74.2998 136.3 74.2998Z" fill="#090A0A"/>
</g>
<path opacity="0.5" d="M191.8 27.5998C176.3 14.4998 156.6 7.2998 136.3 7.2998C88.8001 7.3998 50.1001 45.9998 50.1001 93.5998V200.5C50.1001 248 88.8001 286.7 136.3 286.7C183.8 286.7 222.5 248 222.5 200.5V93.5998C222.5 68.0998 211.3 44.0998 191.8 27.5998ZM136.3 282.6C91.0001 282.6 54.1001 245.7 54.1001 200.4V93.5998C54.1001 48.2998 91.0001 11.3998 136.3 11.3998C155.7 11.3998 174.4 18.2998 189.2 30.6998C207.8 46.3998 218.4 69.2998 218.4 93.5998V200.5C218.5 245.7 181.6 282.6 136.3 282.6Z" fill="#090A0A"/>
<path d="M202.078 172.055L191.917 176.523L196.386 186.684L206.547 182.216L202.078 172.055Z" fill="#3E8948"/>
<path d="M205.607 152.335L195.446 156.804L199.915 166.965L210.076 162.496L205.607 152.335Z" fill="#124E89"/>
<path d="M223.7 138.2L221.5 133.1L216.4 135.3L214.2 130.2L112.3 175L114.5 180.1L109.4 182.3L111.6 187.4L106.5 189.6L124.4 230.4L129.5 228.2L131.7 233.3L136.8 231.1L139 236.2L169.6 222.7L167.4 217.6L208.2 199.7L210.4 204.8L241 191.3L238.8 186.2L243.9 184L241.7 178.9L246.8 176.7L228.8 136L223.7 138.2ZM227.6 160.9L217.4 165.4L212.9 155.2L223.1 150.7L227.6 160.9ZM123.4 200.6L133.6 196.1L129.1 185.9L139.3 181.4L143.8 191.6L154 187.1L158.5 197.3L148.3 201.8L152.8 212L142.6 216.5L138.1 206.3L127.9 210.8L123.4 200.6ZM210.1 162.5L199.9 167L195.4 156.8L205.6 152.3L210.1 162.5ZM224.1 180.6L213.9 185.1L209.4 174.9L219.6 170.4L224.1 180.6ZM191.9 176.5L202.1 172L206.6 182.2L196.4 186.7L191.9 176.5ZM165.8 200.2L170.9 198L168.7 192.9L173.8 190.7L176 195.8L170.9 198L173.1 203.1L168 205.3L165.8 200.2ZM181.1 193.5L186.2 191.3L184 186.2L189.1 184L191.3 189.1L186.2 191.3L188.4 196.4L183.3 198.6L181.1 193.5Z" fill="#C0CBDC"/>
<path d="M186.239 191.213L181.112 193.468L183.367 198.594L188.493 196.339L186.239 191.213Z" fill="#3A4466"/>
<path d="M170.928 197.919L165.802 200.174L168.057 205.3L173.183 203.045L170.928 197.919Z" fill="#3A4466"/>
<path d="M189.15 183.892L184.024 186.146L186.278 191.273L191.405 189.018L189.15 183.892Z" fill="#3A4466"/>
<path d="M173.84 190.598L168.714 192.853L170.968 197.979L176.095 195.724L173.84 190.598Z" fill="#3A4466"/>
<path d="M138.1 206.3L142.6 216.5L152.8 212L148.3 201.8L158.5 197.3L154 187.1L143.8 191.6L139.3 181.4L129.1 185.9L133.6 196.1L123.4 200.6L127.9 210.8L138.1 206.3Z" fill="#3A4466"/>
<path d="M223.081 150.654L212.92 155.123L217.389 165.284L227.55 160.815L223.081 150.654Z" fill="#E43B44"/>
<path d="M219.593 170.466L209.432 174.935L213.901 185.096L224.062 180.627L219.593 170.466Z" fill="#FEAE34"/>
<path d="M241.7 179L243.9 184.1L238.8 186.3L241.1 191.4L210.5 204.9L208.2 199.8L167.5 217.7L169.7 222.8L139.1 236.3L136.9 231.2L131.8 233.4L129.5 228.3L124.4 230.6L128.9 240.8L134 238.5L136.3 243.6L141.4 241.4L143.6 246.5L174.2 233L171.9 227.9L212.7 210L215 215.1L245.5 201.6L243.3 196.5L248.4 194.3L246.2 189.2L251.3 187L246.8 176.8L241.7 179Z" fill="#8B9BB4"/>
<defs>
<radialGradient id="paint0_radial_1716_6447" cx="0" cy="0" r="1" gradientUnits="userSpaceOnUse" gradientTransform="translate(136.311 147) scale(123.213 123.213)">
<stop stop-color="#9CF27F"/>
<stop offset="0.4115" stop-color="#73E55C"/>
<stop offset="1" stop-color="#3BD42D"/>
</radialGradient>
</defs>
</svg>
